<?xml version="1.0" encoding="UTF-8" standalone="no"?>
<!-- Created with Inkscape (http://www.inkscape.org/) -->

<svg
   width="210mm"
   height="297mm"
   viewBox="0 0 210 297"
   version="1.1"
   id="svg1"
   inkscape:version="1.4.3 (0d15f75042, 2025-12-25)"
   sodipodi:docname="heart_gear.svg"
   xmlns:inkscape="http://www.inkscape.org/namespaces/inkscape"
   xmlns:sodipodi="http://sodipodi.sourceforge.net/DTD/sodipodi-0.dtd"
   xmlns="http://www.w3.org/2000/svg"
   xmlns:svg="http://www.w3.org/2000/svg">
  <sodipodi:namedview
     id="namedview1"
     pagecolor="#ffffff"
     bordercolor="#000000"
     borderopacity="0.25"
     inkscape:showpageshadow="2"
     inkscape:pageopacity="0.0"
     inkscape:pagecheckerboard="0"
     inkscape:deskcolor="#d1d1d1"
     inkscape:document-units="mm"
     inkscape:zoom="0.71446409"
     inkscape:cx="397.50074"
     inkscape:cy="561.25984"
     inkscape:window-width="1920"
     inkscape:window-height="1011"
     inkscape:window-x="0"
     inkscape:window-y="0"
     inkscape:window-maximized="1"
     inkscape:current-layer="layer1" />
  <defs
     id="defs1" />
  <g
     inkscape:label="Layer 1"
     inkscape:groupmode="layer"
     id="layer1"
     style="display:inline">
    <path
       id="path26"
       style="display:inline;stroke-width:0.261547"
       d="m 189.67805,208.54412 -20.09214,21.18433 a 12.774383,12.774383 0 0 1 -18.17781,0.36407 l -4.48664,-4.36624 a 20.808188,20.808188 0 0 0 -34.80747,10.32082 l -1.38143,6.1062 a 12.774383,12.774383 0 0 1 -15.438231,9.60347 l -28.39223,-6.80814 a 12.774382,12.774382 0 0 1 -9.404207,-15.56041 l 1.537962,-6.06867 A 20.808189,20.808189 0 0 0 32.694022,198.3358 l -5.978837,1.85675 A 12.774382,12.774382 0 0 1 10.679221,191.62439 L 2.3791301,163.63193 a 12.774383,12.774383 0 0 1 8.7736069,-15.92449 l 6.024597,-1.70242 a 20.808189,20.808189 0 0 0 8.465643,-35.30457 L 21.045574,106.451 A 12.774383,12.774383 0 0 1 20.447835,88.279368 L 40.539976,67.095041 a 12.774382,12.774382 0 0 1 18.177811,-0.364075 l 4.486638,4.366247 A 20.80819,20.80819 0 0 0 98.011899,60.776392 l 1.381435,-6.106197 a 12.774383,12.774383 0 0 1 15.438226,-9.603473 l 28.39223,6.808144 a 12.774382,12.774382 0 0 1 9.40421,15.560411 l -1.53797,6.068663 a 20.808187,20.808187 0 0 0 26.34184,24.983746 l 5.97883,-1.856745 a 12.774383,12.774383 0 0 1 16.03597,8.568159 l 8.30009,27.99247 a 12.774382,12.774382 0 0 1 -8.77361,15.92448 l -6.0246,1.70242 a 20.808189,20.808189 0 0 0 -8.46564,35.30457 l 4.5974,4.24945 a 12.774382,12.774382 0 0 1 0.59774,18.17163 z M 122.13374,110.1376 c -2.87348,0 -5.62265,0.57433 -8.22689,1.51618 0.17196,-0.0622 0.33052,-0.15579 0.50384,-0.21445 -0.50544,0.12756 -1.00981,0.27009 -1.51257,0.42788 -4.85815,1.52469 -8.84168,5.25183 -12.12794,8.71419 -4.160842,-2.30995 -9.05811,-4.65346 -14.128334,-4.65346 -0.869413,10e-6 -1.711658,0.11538 -2.562632,0.19534 0.634071,-0.0596 1.253998,-0.17211 1.898591,-0.18759 -0.721929,-0.041 -1.445866,-0.0526 -2.170927,-0.0336 -2.175185,0.0571 -4.357759,0.39392 -6.506062,1.06815 -8.049059,2.52614 -13.460301,8.56339 -16.081705,15.59026 0.507545,-1.19337 1.107466,-2.34468 1.786453,-3.44889 -0.678855,1.10403 -1.27899,2.25572 -1.786453,3.44889 -1.736448,4.08279 -2.419811,8.63876 -1.711008,13.33614 0.05665,0.37542 0.125823,0.75155 0.207222,1.12809 0.13426,0.62106 0.304863,1.24349 0.50333,1.86655 -0.198475,-0.62308 -0.369065,-1.24547 -0.50333,-1.86655 0.290629,1.87365 0.77502,3.70221 1.455727,5.44205 2.599528,6.64419 11.450597,14.77786 21.043675,21.7749 -1.075611,-0.79705 -2.07173,-1.69204 -3.124357,-2.5275 6.577476,5.21906 13.419476,9.45765 19.388998,12.68553 -2.160376,-1.16452 -4.075018,-2.06001 -6.46937,-3.53725 3.028604,1.89622 5.545379,3.16764 8.162802,4.56251 0.52584,0.27427 1.09456,0.64108 1.59629,0.89245 4.49,2.29775 8.20752,3.8982 9.49864,3.68247 -0.17303,-0.007 -0.3812,-0.0361 -0.60875,-0.0775 0.22708,0.0412 0.43602,0.0708 0.60875,0.0775 0.10517,0.004 0.20016,0.002 0.28422,-0.007 5.04833,-0.54276 35.46989,-34.41912 36.60035,-50.81705 0.13018,-1.88822 0.0405,-3.80314 -0.25218,-5.70198 -0.0351,-0.38359 -0.0812,-0.76279 -0.13952,-1.13791 -0.77479,-4.97994 -2.9974,-9.33877 -6.1619,-12.81989 -0.001,-10e-4 -0.002,-0.002 -0.003,-0.003 -4.60158,-5.55183 -11.35468,-9.37513 -19.46186,-9.37513 z m -11.13886,2.7559 c -0.17122,0.0849 -0.35084,0.15214 -0.52038,0.2403 0.16985,-0.0883 0.34883,-0.15527 0.52038,-0.2403 z m -3.70675,2.15904 c -0.27369,0.18595 -0.53516,0.38721 -0.80305,0.58084 0.26864,-0.19419 0.52857,-0.39437 0.80305,-0.58084 z m -25.111644,1.25884 c -0.72931,0.11987 -1.430858,0.31864 -2.140955,0.49454 0.710681,-0.17607 1.411028,-0.37459 2.140955,-0.49454 z m -3.948596,0.94826 c -0.702834,0.22511 -1.369539,0.52508 -2.04742,0.80305 0.678429,-0.27822 1.343998,-0.57777 2.04742,-0.80305 z m 26.02218,0.12558 c -0.26919,0.22911 -0.54129,0.4551 -0.80305,0.69091 0.26269,-0.23668 0.53288,-0.46099 0.80305,-0.69091 z m -29.735647,1.36167 c -0.667896,0.32544 -1.290357,0.72195 -1.927016,1.09709 0.63708,-0.37543 1.258657,-0.77144 1.927016,-1.09709 z m -3.431834,1.97972 c -0.625882,0.42303 -1.195967,0.91248 -1.783352,1.38235 0.587618,-0.47009 1.157205,-0.95914 1.783352,-1.38235 z m -3.0949,2.41949 c -0.584829,0.52794 -1.103056,1.11786 -1.639178,1.69137 0.536363,-0.5738 1.054063,-1.16319 1.639178,-1.69137 z m -2.710428,2.81275 c -0.562036,0.67351 -1.043861,1.40417 -1.536859,2.127 0.493038,-0.7229 0.974773,-1.45342 1.536859,-2.127 z m -4.830715,23.56239 c 0.139501,0.39674 0.28022,0.79366 0.443902,1.19062 -0.163732,-0.39706 -0.304364,-0.79377 -0.443902,-1.19062 z m 1.092957,2.50476 c 0.395745,0.82989 0.790151,1.66013 1.280025,2.48718 -0.490062,-0.82733 -0.884153,-1.65701 -1.280025,-2.48718 z m 2.259295,3.97908 c 0.490106,0.74456 0.976363,1.48934 1.531689,2.22777 -0.555678,-0.73888 -1.04131,-1.48275 -1.531689,-2.22777 z m 2.777091,3.77755 c 0.506986,0.62205 1.020799,1.24273 1.566828,1.85777 -0.547296,-0.61639 -1.058749,-1.23434 -1.566828,-1.85777 z m 4.711856,5.00279 c 1.40359,1.39194 2.790571,2.78886 4.328419,4.1181 -1.544582,-1.33461 -2.91919,-2.72026 -4.328419,-4.1181 z m 31.814595,22.1418 c 1.1402,0.54643 2.24086,1.06355 3.19929,1.464 -0.98141,-0.40959 -2.02709,-0.90106 -3.19929,-1.464 z m 5.01262,2.22157 c 0.41586,0.15193 0.81526,0.29299 1.17098,0.40308 -0.358,-0.11076 -0.75205,-0.24994 -1.17098,-0.40308 z m 1.86241,0.61599 c 0.1524,0.0398 0.30009,0.0766 0.43667,0.10593 -0.13677,-0.0294 -0.28405,-0.0661 -0.43667,-0.10593 z" />
  </g>
</svg>
