<?xml version="1.0" encoding="UTF-8" standalone="no"?>
<svg
   version="1.1"
   width="274.5"
   height="274.5"
   viewBox="0,0,274.5,274.5"
   id="svg32"
   sodipodi:docname="Phönix_logo_cutout.svg"
   inkscape:version="1.4.2 (ebf0e940d0, 2025-05-08)"
   xml:space="preserve"
   xmlns:inkscape="http://www.inkscape.org/namespaces/inkscape"
   xmlns:sodipodi="http://sodipodi.sourceforge.net/DTD/sodipodi-0.dtd"
   xmlns="http://www.w3.org/2000/svg"
   xmlns:svg="http://www.w3.org/2000/svg"><sodipodi:namedview
     id="namedview32"
     pagecolor="#ffffff"
     bordercolor="#000000"
     borderopacity="0.25"
     inkscape:showpageshadow="2"
     inkscape:pageopacity="0.0"
     inkscape:pagecheckerboard="0"
     inkscape:deskcolor="#d1d1d1"
     inkscape:zoom="2.9216758"
     inkscape:cx="167.71197"
     inkscape:cy="138.27681"
     inkscape:window-width="1904"
     inkscape:window-height="995"
     inkscape:window-x="20"
     inkscape:window-y="20"
     inkscape:window-maximized="0"
     inkscape:current-layer="svg32" /><defs
     id="defs20"><radialGradient
       cx="240"
       cy="180"
       r="136.5"
       gradientUnits="userSpaceOnUse"
       id="color-1"><stop
         offset="0"
         stop-color="#d3ff00"
         id="stop1" /><stop
         offset="1"
         stop-color="#35ff00"
         id="stop2" /></radialGradient><linearGradient
       x1="281.89402"
       y1="102.71675"
       x2="281.89402"
       y2="295.28081"
       gradientUnits="userSpaceOnUse"
       id="color-2"><stop
         offset="0"
         stop-color="#ff4a00"
         id="stop3" /><stop
         offset="1"
         stop-color="#ffc700"
         id="stop4" /></linearGradient><linearGradient
       x1="282.10531"
       y1="245.04789"
       x2="362.90474"
       y2="245.04789"
       gradientUnits="userSpaceOnUse"
       id="color-3"><stop
         offset="0"
         stop-color="#ffd200"
         id="stop5" /><stop
         offset="1"
         stop-color="#ff4a00"
         id="stop6" /></linearGradient><linearGradient
       x1="306.60768"
       y1="62.79015"
       x2="306.60768"
       y2="149.12974"
       gradientUnits="userSpaceOnUse"
       id="color-4"><stop
         offset="0"
         stop-color="#ff0000"
         id="stop7" /><stop
         offset="1"
         stop-color="#ffa000"
         id="stop8" /></linearGradient><linearGradient
       x1="343.94929"
       y1="89.77352"
       x2="343.94929"
       y2="168.13074"
       gradientUnits="userSpaceOnUse"
       id="color-5"><stop
         offset="0"
         stop-color="#ff0000"
         id="stop9" /><stop
         offset="1"
         stop-color="#ffab00"
         id="stop10" /></linearGradient><linearGradient
       x1="107.8409"
       y1="179.11572"
       x2="133.5598"
       y2="179.11572"
       gradientUnits="userSpaceOnUse"
       id="color-6"><stop
         offset="0"
         stop-color="#ff1900"
         id="stop11" /><stop
         offset="1"
         stop-color="#ff6f00"
         id="stop12" /></linearGradient><linearGradient
       x1="171.55914"
       y1="65.82739"
       x2="171.55914"
       y2="155.31526"
       gradientUnits="userSpaceOnUse"
       id="color-7"><stop
         offset="0"
         stop-color="#ff1900"
         id="stop13" /><stop
         offset="1"
         stop-color="#ff3e00"
         id="stop14" /></linearGradient><linearGradient
       x1="191.27489"
       y1="102.38212"
       x2="191.27489"
       y2="193.81251"
       gradientUnits="userSpaceOnUse"
       id="color-8"><stop
         offset="0"
         stop-color="#ff2500"
         id="stop15" /><stop
         offset="1"
         stop-color="#ff6f00"
         id="stop16" /></linearGradient><linearGradient
       x1="123.77131"
       y1="182.97813"
       x2="203.70752"
       y2="182.97813"
       gradientUnits="userSpaceOnUse"
       id="color-9"><stop
         offset="0"
         stop-color="#ff3100"
         id="stop17" /><stop
         offset="1"
         stop-color="#ffad00"
         id="stop18" /></linearGradient><linearGradient
       x1="121.38016"
       y1="259.43362"
       x2="206.12473"
       y2="259.43362"
       gradientUnits="userSpaceOnUse"
       id="color-10"><stop
         offset="0"
         stop-color="#ff6f00"
         id="stop19" /><stop
         offset="1"
         stop-color="#ffb900"
         id="stop20" /></linearGradient><radialGradient
       cx="240"
       cy="180"
       r="136.5"
       gradientUnits="userSpaceOnUse"
       id="color-1-5"><stop
         offset="0"
         stop-color="#d3ff00"
         id="stop1-3" /><stop
         offset="1"
         stop-color="#35ff00"
         id="stop2-5" /></radialGradient></defs><path
     id="path1"
     style="opacity:1;fill:#000000;fill-opacity:1;stroke:none;stroke-width:3.01658;stroke-dasharray:none;stroke-opacity:1"
     d="M 137.5 0 A 137.5 137.49997 0 0 0 0 137.5 A 137.5 137.49997 0 0 0 137.5 275 A 137.5 137.49997 0 0 0 275 137.5 A 137.5 137.49997 0 0 0 137.5 0 z M 187.47852 20.181641 C 203.89493 26.833552 210.5405 31.620451 216.20703 39.902344 C 221.65224 48.185773 224.6698 57.774203 224.35352 67.726562 C 224.23226 77.00344 222.65932 85.395522 212.8457 106.51953 C 216.35463 82.381803 217.33809 73.093827 212.52148 57.46875 C 208.11095 43.161005 198.43726 31.461161 187.47852 20.181641 z M 88.164062 23.337891 C 78.318987 37.435273 69.912584 49.843706 65.361328 65.009766 C 60.777753 80.283522 61.968548 87.584303 61.423828 112.6875 C 61.423828 112.68748 54.091823 90.266876 53.644531 78.630859 C 53.391548 72.049663 54.312152 65.281108 56.552734 59.087891 C 62.597523 42.379426 75.462226 32.308721 88.164062 23.337891 z M 234.44531 47.164062 C 243.94175 56.647922 251.17008 68.87267 251.86523 81.767578 C 252.70368 97.320764 243.05515 115.55967 235.46289 125.52148 C 239.71285 109.81728 243.17495 99.057865 242.94727 85.482422 C 242.72787 72.400581 239.17823 59.499833 234.44531 47.164062 z M 76.078125 59.773438 C 76.784414 71.646527 77.947409 85.870169 82.261719 97.072266 C 89.35539 115.49095 102.42681 131.11728 109.82812 139.95312 L 100.57812 151.20312 C 91.037065 140.05669 84.232493 130.7408 80.078125 122.95312 C 72.901223 109.49948 70.951325 101.57663 70.710938 88.960938 C 70.445443 75.027739 73.008087 67.796526 76.078125 59.773438 z M 205.88281 60.107422 C 205.88281 60.107422 210.37184 69.617694 211.30664 74.732422 C 212.29339 80.131385 212.33546 85.7871 211.41211 91.197266 C 209.58843 101.88274 205.63995 112.30093 200.42969 121.80664 C 193.01195 135.33974 172.10547 158.42969 172.10547 158.42969 C 172.10547 158.42969 203.18743 134.57434 213.61328 118.43555 C 222.87383 104.10059 230.83984 70.222656 230.83984 70.222656 C 232.23719 79.684544 235.22252 102.96207 231.3125 118.61133 C 228.97796 127.95497 223.26306 136.27736 217.47461 143.97461 C 212.15301 151.05106 198.60352 162.66797 198.60352 162.66797 C 198.60352 162.66797 215.73804 152.96528 223.29688 146.73438 C 229.30708 141.78003 242.90418 125.87784 247.54883 119.14453 C 251.70169 113.12417 258.55273 100.16211 258.55273 100.16211 C 261.33799 123.48889 259.38649 130.50112 257.16211 135.7168 C 251.54663 148.88383 235.87916 164.1273 227.35156 171.79102 C 219.48651 178.85929 207.60058 185.86708 202.29297 190.76758 C 175.67502 215.76329 179.04385 241.65791 169.18555 249.11719 C 163.04195 253.76574 146.33008 252.55273 146.33008 252.55273 C 146.33008 252.55273 153.70361 246.97185 154.66211 242.80664 C 155.57614 238.83467 153.41889 234.61104 151.57812 230.97461 C 149.509 226.88705 144.99676 224.38631 142.91211 220.30664 C 139.9676 214.54421 137.93045 208.02948 137.87305 201.55859 C 137.77526 190.54102 145.88477 169.49023 145.88477 169.49023 C 145.88477 169.49023 141.59986 176.89671 139.38477 180.55664 C 133.73441 189.66552 127.53536 198.8886 125.82227 209.70898 C 124.90516 216.74911 128.16211 230.87891 128.16211 230.87891 C 128.16211 230.87891 122.09877 224.38122 120.38281 220.37695 C 117.15707 212.84957 116.17383 196.17188 116.17383 196.17188 C 116.17383 196.17188 110.52464 210.51136 110.23438 218.06836 C 109.97086 224.9292 111.22471 232.06143 114.08594 238.30273 C 116.4021 243.35505 124.46094 251.35547 124.46094 251.35547 C 124.46094 251.35547 114.96767 245.94344 111.50195 241.86133 C 108.11643 237.87369 105.66301 232.9425 104.4043 227.86523 C 102.03985 218.32771 103.19564 208.19071 103.91211 198.39062 C 104.67573 187.94564 106.23068 177.48681 109 167.38672 C 111.82591 157.08022 115.70615 146.98957 120.66992 137.52539 C 127.6321 124.25095 136.53141 120.93078 133.49414 111.86328 C 131.23707 105.12501 121.45992 101.56743 114.40039 102.38086 C 110.06685 102.88019 104.31055 110.71484 104.31055 110.71484 C 104.31055 110.71484 102.4523 104.21906 102.4375 100.88281 C 102.42004 96.952623 102.99268 92.89365 104.54102 89.28125 C 106.04803 85.765282 108.52467 82.637317 111.30664 80.011719 C 116.74715 74.877016 130.20562 67.942298 140.91211 65.390625 C 152.5426 62.618736 161.12394 62.484776 176.7793 65.060547 C 176.7793 65.060547 163.25494 65.21201 156.85938 67.125 C 153.09269 68.251661 146.38672 72.550781 146.38672 72.550781 C 146.38672 72.550781 160.1229 72.18895 166.6543 73.980469 C 176.27854 76.620332 179.4282 79.337098 182.44336 89.9375 C 182.44336 89.9375 173.3124 83.537391 168.0918 81.818359 C 163.18784 80.203592 152.7168 79.943359 152.7168 79.943359 C 152.7168 79.943359 159.64908 85.702691 161.85547 89.525391 C 164.62566 94.324906 165.90892 99.972196 166.5332 105.47852 C 167.34807 112.66595 165.24414 127.14062 165.24414 127.14062 C 165.24414 127.14063 162.37102 117.9119 160.71875 120.55664 C 159.06649 123.20138 157.18845 136.07341 154.90625 143.68945 C 154.18213 146.10596 152.41016 150.83398 152.41016 150.83398 C 152.41016 150.83398 152.8381 138.9473 148.58008 140.1582 C 144.32206 141.3691 139.54115 149.46229 136.09766 154.9043 C 132.3756 160.78656 129.28184 167.20067 127.4707 173.92188 C 125.4476 181.42968 125.12891 197.13086 125.12891 197.13086 C 125.12891 197.13086 135.19414 173.41259 142.81641 163.17773 C 149.48785 154.21961 159.40387 148.15422 166.85352 139.83203 C 172.89607 133.08174 178.24372 125.72753 183.52344 118.36523 C 187.92475 112.22783 192.57005 106.18356 196.01562 99.462891 C 198.98625 93.668612 201.34647 87.513154 202.96094 81.205078 C 204.72127 74.327096 205.88281 60.107422 205.88281 60.107422 z M 48.050781 66.554688 C 48.050781 66.554688 45.818073 83.457418 46.025391 91.945312 C 46.449231 109.29791 49.010895 115.19083 54.908203 124.44727 C 66.229992 142.21798 70.743091 144.41266 87.083984 152.31641 C 92.225285 154.80315 103.03516 158.57031 103.03516 158.57031 C 103.03516 158.57031 97.139325 175.73961 96.242188 184.69141 C 95.260475 194.48712 97.855469 214.18164 97.855469 214.18164 C 97.855469 214.18164 80.367872 208.05122 72.347656 203.50977 C 64.937118 199.31355 57.886002 194.29471 51.767578 188.37109 C 44.533143 181.367 37.92219 173.46309 33.089844 164.62891 C 28.614205 156.44684 25.294709 147.42312 23.904297 138.20117 C 23.049817 132.5338 24.509766 121.01758 24.509766 121.01758 C 24.509766 121.01758 30.553243 134.90644 33.859375 141.33398 C 36.351669 146.17932 39.550517 150.78371 43.505859 154.53125 C 46.841164 157.69133 55.056641 162.05273 55.056641 162.05273 C 55.056641 162.05273 49.342696 154.20168 46.798828 150.07227 C 44.164977 145.79679 41.520664 141.48319 39.566406 136.85742 C 36.452562 129.48689 33.447271 121.86151 32.503906 113.91602 C 31.517948 105.61179 31.50552 96.838373 34.064453 88.876953 C 36.751269 80.517659 48.050781 66.554688 48.050781 66.554688 z M 132.76758 82.142578 C 131.10834 82.094818 128.85716 82.386436 126.49414 83.744141 C 121.76809 86.459551 116.49414 93.494141 116.49414 93.494141 C 116.49414 93.494141 124.6924 91.737701 128.16211 89.744141 C 131.63182 87.750581 135.49414 82.578125 135.49414 82.578125 C 135.49414 82.578125 134.42683 82.190338 132.76758 82.142578 z M 17.560547 87.011719 C 16.155063 98.957355 14.170673 117.56274 15.914062 130.49609 C 18.815824 149.69113 26.331224 167.85516 32.888672 186 C 17.840684 169.78226 8.8632145 149.07037 7.0859375 127.97852 C 5.9024388 113.93334 9.6021719 103.36961 17.560547 87.011719 z M 262.23242 158 C 261.71157 171.00644 259.07743 183.004 249.44141 192.45703 C 238.162 203.97256 223.18882 210.3384 209.34766 218.07031 C 197.56066 225.57262 187.3562 233.76007 181.43359 246.87695 C 181.43359 246.87695 184.72262 232.04337 188.57031 225.64453 C 196.39001 213.42775 208.09698 205.7096 220.96094 199.61133 C 231.47623 193.56762 242.56606 188.13928 249.64648 177.8457 C 254.45404 171.6611 262.23242 158.00001 262.23242 158 z M 20.708984 186.8457 C 20.708984 186.8457 31.801434 198.1694 38.179688 202.8125 C 49.766976 211.24755 62.550777 218.03547 75.535156 224.10352 C 83.323261 227.74317 99.705078 233.09961 99.705078 233.09961 L 105.45312 246.80273 C 71.030179 235.3819 64.722484 232.63743 56.720703 227.16016 C 47.113152 221.17078 40.268251 216.64747 32.251953 205.87109 C 27.824665 199.91945 20.708984 186.8457 20.708984 186.8457 z M 146.91211 190.32812 C 141.5102 201.0692 145.41162 206.83071 147.39453 210.05078 C 149.8981 214.11636 155.39942 215.0624 159.36133 226.875 C 161.00867 231.78662 162.16211 242.16211 162.16211 242.16211 C 162.16211 242.16211 166.42802 232.97533 166.23047 228.09961 C 165.77351 216.82136 155.10147 209.54373 151.7207 204.89453 C 148.71354 200.75911 146.91211 190.32812 146.91211 190.32812 z " /></svg>
