<?xml version="1.0" encoding="UTF-8" standalone="no"?>
<svg
   version="1.1"
   width="274.5"
   height="274.5"
   viewBox="0,0,274.5,274.5"
   id="svg32"
   sodipodi:docname="Phönix_logo_mono.svg"
   inkscape:version="1.4.2 (ebf0e940d0, 2025-05-08)"
   xml:space="preserve"
   xmlns:inkscape="http://www.inkscape.org/namespaces/inkscape"
   xmlns:sodipodi="http://sodipodi.sourceforge.net/DTD/sodipodi-0.dtd"
   xmlns="http://www.w3.org/2000/svg"
   xmlns:svg="http://www.w3.org/2000/svg"><sodipodi:namedview
     id="namedview32"
     pagecolor="#ffffff"
     bordercolor="#000000"
     borderopacity="0.25"
     inkscape:showpageshadow="2"
     inkscape:pageopacity="0.0"
     inkscape:pagecheckerboard="0"
     inkscape:deskcolor="#d1d1d1"
     inkscape:zoom="2.9216758"
     inkscape:cx="167.71197"
     inkscape:cy="97.204488"
     inkscape:window-width="1904"
     inkscape:window-height="995"
     inkscape:window-x="20"
     inkscape:window-y="20"
     inkscape:window-maximized="0"
     inkscape:current-layer="svg32" /><defs
     id="defs20"><radialGradient
       cx="240"
       cy="180"
       r="136.5"
       gradientUnits="userSpaceOnUse"
       id="color-1"><stop
         offset="0"
         stop-color="#d3ff00"
         id="stop1" /><stop
         offset="1"
         stop-color="#35ff00"
         id="stop2" /></radialGradient><linearGradient
       x1="281.89402"
       y1="102.71675"
       x2="281.89402"
       y2="295.28081"
       gradientUnits="userSpaceOnUse"
       id="color-2"><stop
         offset="0"
         stop-color="#ff4a00"
         id="stop3" /><stop
         offset="1"
         stop-color="#ffc700"
         id="stop4" /></linearGradient><linearGradient
       x1="282.10531"
       y1="245.04789"
       x2="362.90474"
       y2="245.04789"
       gradientUnits="userSpaceOnUse"
       id="color-3"><stop
         offset="0"
         stop-color="#ffd200"
         id="stop5" /><stop
         offset="1"
         stop-color="#ff4a00"
         id="stop6" /></linearGradient><linearGradient
       x1="306.60768"
       y1="62.79015"
       x2="306.60768"
       y2="149.12974"
       gradientUnits="userSpaceOnUse"
       id="color-4"><stop
         offset="0"
         stop-color="#ff0000"
         id="stop7" /><stop
         offset="1"
         stop-color="#ffa000"
         id="stop8" /></linearGradient><linearGradient
       x1="343.94929"
       y1="89.77352"
       x2="343.94929"
       y2="168.13074"
       gradientUnits="userSpaceOnUse"
       id="color-5"><stop
         offset="0"
         stop-color="#ff0000"
         id="stop9" /><stop
         offset="1"
         stop-color="#ffab00"
         id="stop10" /></linearGradient><linearGradient
       x1="107.8409"
       y1="179.11572"
       x2="133.5598"
       y2="179.11572"
       gradientUnits="userSpaceOnUse"
       id="color-6"><stop
         offset="0"
         stop-color="#ff1900"
         id="stop11" /><stop
         offset="1"
         stop-color="#ff6f00"
         id="stop12" /></linearGradient><linearGradient
       x1="171.55914"
       y1="65.82739"
       x2="171.55914"
       y2="155.31526"
       gradientUnits="userSpaceOnUse"
       id="color-7"><stop
         offset="0"
         stop-color="#ff1900"
         id="stop13" /><stop
         offset="1"
         stop-color="#ff3e00"
         id="stop14" /></linearGradient><linearGradient
       x1="191.27489"
       y1="102.38212"
       x2="191.27489"
       y2="193.81251"
       gradientUnits="userSpaceOnUse"
       id="color-8"><stop
         offset="0"
         stop-color="#ff2500"
         id="stop15" /><stop
         offset="1"
         stop-color="#ff6f00"
         id="stop16" /></linearGradient><linearGradient
       x1="123.77131"
       y1="182.97813"
       x2="203.70752"
       y2="182.97813"
       gradientUnits="userSpaceOnUse"
       id="color-9"><stop
         offset="0"
         stop-color="#ff3100"
         id="stop17" /><stop
         offset="1"
         stop-color="#ffad00"
         id="stop18" /></linearGradient><linearGradient
       x1="121.38016"
       y1="259.43362"
       x2="206.12473"
       y2="259.43362"
       gradientUnits="userSpaceOnUse"
       id="color-10"><stop
         offset="0"
         stop-color="#ff6f00"
         id="stop19" /><stop
         offset="1"
         stop-color="#ffb900"
         id="stop20" /></linearGradient><radialGradient
       cx="240"
       cy="180"
       r="136.5"
       gradientUnits="userSpaceOnUse"
       id="color-1-5"><stop
         offset="0"
         stop-color="#d3ff00"
         id="stop1-3" /><stop
         offset="1"
         stop-color="#35ff00"
         id="stop2-5" /></radialGradient></defs><ellipse
     style="opacity:1;fill:none;stroke:#000000;stroke-width:2.98385;stroke-dasharray:none;stroke-opacity:1"
     id="path1"
     cx="137.5"
     cy="137.5"
     rx="136.00807"
     ry="136.00804" /><path
     id="path57"
     style="display:inline;opacity:1;stroke-width:0"
     d="m 187.47777,20.181256 c 10.95874,11.27952 20.63244,22.979364 25.04297,37.287109 4.81661,15.625077 3.83315,24.913057 0.32422,49.050785 9.81362,-21.124009 11.38655,-29.516095 11.50781,-38.792972 0.31628,-9.952359 -2.70127,-19.54079 -8.14648,-27.824219 -5.66653,-8.281893 -12.31211,-13.068792 -28.72852,-19.720703 z m -99.314459,3.15625 c -12.701837,8.97083 -25.56654,19.041535 -31.611329,35.75 -2.240582,6.193217 -3.161186,12.961772 -2.908203,19.542968 0.447292,11.636017 7.779297,34.056626 7.779297,34.056646 0.54472,-25.103197 -0.646075,-32.403983 3.9375,-47.677739 4.551256,-15.16606 12.957659,-27.574493 22.802735,-41.671875 z M 234.44457,47.163678 c 4.73292,12.33577 8.28333,25.237188 8.50273,38.319029 0.22768,13.575443 -3.23519,24.334193 -7.48515,40.038393 7.59226,-9.96181 17.24079,-28.200721 16.40234,-43.753907 -0.69515,-12.894908 -7.92348,-25.119656 -17.41992,-34.603515 z M 76.077373,59.773052 c -3.070038,8.023089 -5.632682,15.254302 -5.367188,29.1875 0.240388,12.615688 2.190286,20.538548 9.367188,33.992188 4.154368,7.78768 10.958947,17.10356 20.500007,28.25 l 9.25,-11.25 C 102.42606,131.1169 89.354638,115.49057 82.260967,97.071881 77.946657,85.869784 76.783662,71.646142 76.077373,59.773052 Z m 129.804697,0.333985 c 0,0 -1.16155,14.219674 -2.92188,21.097656 -1.61447,6.308076 -3.97468,12.463528 -6.94531,18.257807 -3.44557,6.72067 -8.09088,12.76495 -12.49219,18.90235 -5.27972,7.3623 -10.62737,14.71651 -16.66992,21.4668 -7.44965,8.32219 -17.36567,14.38758 -24.03711,23.3457 -7.62227,10.23486 -17.6875,33.95312 -17.6875,33.95312 0,0 0.3187,-15.70117 2.3418,-23.20898 1.81114,-6.7212 4.90489,-13.13532 8.62695,-19.01758 3.44349,-5.44201 8.2244,-13.53519 12.48242,-14.74609 4.25802,-1.2109 3.83008,10.67578 3.83008,10.67578 0,0 1.77197,-4.72802 2.49609,-7.14453 2.2822,-7.61604 4.16024,-20.48807 5.8125,-23.13281 1.65227,-2.64474 4.5254,6.58398 4.5254,6.58398 0,0 2.10393,-14.47468 1.28906,-21.66211 -0.62428,-5.50632 -1.90755,-11.153609 -4.67774,-15.953124 -2.20639,-3.8227 -9.13867,-9.582032 -9.13867,-9.582032 0,0 10.47104,0.260233 15.375,1.875 5.2206,1.719032 14.35156,8.119141 14.35156,8.119141 -3.01516,-10.600402 -6.16482,-13.317168 -15.78906,-15.957031 -6.5314,-1.791519 -20.26758,-1.429688 -20.26758,-1.429688 0,0 6.70597,-4.29912 10.47266,-5.425781 6.39557,-1.91299 19.91992,-2.064453 19.91992,-2.064453 -15.65536,-2.575771 -24.2367,-2.441811 -35.86719,0.330078 -10.70649,2.551673 -24.16495,9.486391 -29.60546,14.621094 -2.78197,2.625598 -5.25862,5.753563 -6.76563,9.269531 -1.54834,3.6124 -2.12097,7.671365 -2.10351,11.601555 0.0148,3.33625 1.87304,9.83204 1.87304,9.83204 0,0 5.75631,-7.83467 10.08985,-8.334 7.05953,-0.81343 16.83668,2.74417 19.09375,9.48244 3.03727,9.0675 -5.86167,12.38779 -12.82385,25.66223 -4.96377,9.46418 -8.84438,19.5547 -11.67029,29.8612 -2.76932,10.10009 -4.32428,20.55892 -5.0879,31.00391 -0.71647,9.80008 -1.87226,19.93709 0.49219,29.47461 1.25871,5.07727 3.71214,10.00845 7.09766,13.99609 3.46572,4.08211 12.95898,9.49414 12.95898,9.49414 0,0 -8.05884,-8.00041 -10.375,-13.05273 -2.86123,-6.2413 -4.11508,-13.37354 -3.85156,-20.23438 0.29026,-7.557 5.93945,-21.89648 5.93945,-21.89648 0,0 0.98325,16.6777 4.20899,24.20508 1.71596,4.00427 7.77929,10.50195 7.77929,10.50195 0,0 -3.25695,-14.12979 -2.33984,-21.16992 1.71309,-10.82038 7.91214,-20.04346 13.5625,-29.15234 2.21509,-3.65993 6.5,-11.06641 6.5,-11.06641 0,0 -8.10951,21.05079 -8.01172,32.06836 0.0574,6.47089 2.09455,12.98562 5.03906,18.74805 2.08465,4.07967 6.59689,6.5804 8.66602,10.66796 1.84077,3.63643 3.99801,7.86007 3.08398,11.83204 -0.9585,4.16521 -8.33203,9.74609 -8.33203,9.74609 0,0 16.71187,1.213 22.85547,-3.43555 9.8583,-7.45928 6.48947,-33.3539 33.10742,-58.34961 5.30761,-4.9005 17.19355,-11.90829 25.0586,-18.97656 8.5276,-7.66372 24.19506,-22.90719 29.81054,-36.07422 2.22438,-5.21568 4.17589,-12.22791 1.39063,-35.55469 0,0 -6.85105,12.96207 -11.00391,18.98243 -4.64465,6.73331 -18.24174,22.6355 -24.25195,27.58984 -7.55883,6.23091 -24.69336,15.93359 -24.69336,15.93359 0,0 13.54949,-11.61691 18.87109,-18.69336 5.78845,-7.69725 11.50336,-16.01964 13.8379,-25.36328 3.91002,-15.64926 0.92469,-38.926781 -0.47266,-48.388669 0,0 -7.96601,33.877929 -17.22656,48.212889 -10.42585,16.13879 -41.50782,39.99414 -41.50782,39.99414 0,0 20.90648,-23.08994 28.32422,-36.62304 5.21026,-9.50571 9.15874,-19.9239 10.98242,-30.609379 0.92335,-5.410166 0.88129,-11.065881 -0.10546,-16.464844 -0.9348,-5.114728 -5.42383,-14.625 -5.42383,-14.625 z M 48.050029,66.554302 c 0,0 -11.298362,13.963021 -13.985178,22.322315 -2.558933,7.96142 -2.54765,16.734783 -1.561692,25.039013 0.943365,7.94549 3.948656,15.57088 7.0625,22.94141 1.954258,4.62577 4.599394,8.93936 7.233245,13.21484 2.543868,4.12941 8.25699,11.98047 8.25699,11.98047 0,0 -8.215477,-4.36141 -11.550782,-7.52149 -3.955342,-3.74754 -7.152996,-8.35192 -9.64529,-13.19726 -3.306132,-6.42754 -9.350803,-20.31641 -9.350803,-20.31641 0,0 -1.459949,11.51623 -0.605469,17.1836 1.390412,9.22195 4.709908,18.24566 9.185547,26.42773 4.832346,8.83418 11.443299,16.7381 18.677734,23.74219 6.118424,5.92362 13.16954,10.94245 20.580078,15.13867 8.020216,4.54145 25.507817,10.67188 25.507817,10.67188 0,0 -2.594999,-19.69453 -1.613286,-29.49024 0.897137,-8.9518 6.79298,-26.12109 6.79298,-26.12109 0,0 -10.809882,-3.76717 -15.951183,-6.25391 -16.340893,-7.90375 -20.853992,-10.09843 -32.175781,-27.86914 -5.897308,-9.25644 -8.458972,-15.14935 -8.882812,-32.501952 -0.207318,-8.487895 2.02539,-25.390625 2.02539,-25.390626 z m 84.716801,15.587891 c 1.65925,0.04776 2.72657,0.435547 2.72657,0.435547 0,0 -3.86233,5.172456 -7.33204,7.166016 -3.46971,1.99356 -11.66796,3.75 -11.66796,3.75 0,0 5.27395,-7.03459 10,-9.75 2.36302,-1.357705 4.61419,-1.649323 6.27343,-1.601563 z M 17.559795,87.011334 C 9.60142,103.36923 5.9020842,113.93321 7.0855829,127.97839 8.8628599,149.07024 17.839932,169.78188 32.88792,185.99962 26.330472,167.85478 18.815073,149.69075 15.913311,130.49571 c -1.74339,-12.93335 0.241,-31.53874 1.646484,-43.484376 z M 262.23168,157.99962 c 0,1e-5 -7.77838,13.6611 -12.58594,19.8457 -7.08042,10.29358 -18.17026,15.72191 -28.68555,21.76562 -12.86396,6.09827 -24.57092,13.81643 -32.39062,26.03321 -3.84769,6.39884 -7.13672,21.23242 -7.13672,21.23242 5.92261,-13.11688 16.12706,-21.30433 27.91406,-28.80664 13.84116,-7.73191 28.81434,-14.09775 40.09375,-25.61328 9.63602,-9.45303 12.27017,-21.45059 12.79102,-34.45703 z m -241.523448,28.8457 c 0,0 7.115681,13.07375 11.542969,19.02539 8.016298,10.77638 14.861199,15.29968 24.46875,21.28906 8.001781,5.47727 14.309483,8.22175 48.732429,19.64258 l -5.74805,-13.70313 c 0,0 -16.381821,-5.35644 -24.169926,-8.99609 -12.984379,-6.06805 -25.768181,-12.85596 -37.355469,-21.29101 -6.378253,-4.6431 -17.470703,-15.9668 -17.470703,-15.9668 z m 126.203128,3.48242 c 0,0 1.80144,10.43099 4.8086,14.56641 3.38077,4.6492 14.0528,11.92682 14.50976,23.20507 0.19755,4.87572 -4.06836,14.0625 -4.06836,14.0625 0,0 -1.15344,-10.37548 -2.80078,-15.2871 -3.96191,-11.8126 -9.46322,-12.75864 -11.96679,-16.82422 -1.98291,-3.22007 -5.88434,-8.98158 -0.48243,-19.72266 z"
     sodipodi:nodetypes="cacaaccaasaccacaccaaccaccaaaaacaascascaacacacacaaaacaasaaaacaacacaacaaaacaaaacaacaacacaaaccaaaacascaaaacacaaaccscscsscacacsaaacaascaaccaaccsscasc"
     inkscape:transform-center-x="4.4495012"
     inkscape:transform-center-y="-5.5618765" /></svg>
