<svg version="1.1" xmlns="http://www.w3.org/2000/svg" xmlns:xlink="http://www.w3.org/1999/xlink" width="274.99999" height="274.99993" viewBox="0,0,274.99999,274.99993"><defs><radialGradient cx="240.25001" cy="180.25001" r="136.00807" gradientUnits="userSpaceOnUse" id="color-1"><stop offset="0" stop-color="#d3ff00"/><stop offset="1" stop-color="#35ff00"/></radialGradient><linearGradient x1="237.3005" y1="62.93126" x2="237.3005" y2="295.445" gradientUnits="userSpaceOnUse" id="color-2"><stop offset="0" stop-color="#ff4a00"/><stop offset="1" stop-color="#ffc700"/></linearGradient></defs><g transform="translate(-102.75001,-42.75004)"><g data-paper-data="{&quot;isPaintingLayer&quot;:true}" fill-rule="nonzero" stroke-linecap="butt" stroke-linejoin="miter" stroke-miterlimit="10" stroke-dasharray="" stroke-dashoffset="0" style="mix-blend-mode: normal"><path d="M104.24193,180.25001c0,-75.11517 60.89289,-136.00804 136.00807,-136.00804c75.11518,0 136.00807,60.89287 136.00807,136.00804c0,75.11517 -60.89289,136.00804 -136.00807,136.00804c-75.11518,0 -136.00807,-60.89287 -136.00807,-136.00804z" fill="url(#color-1)" stroke="#000000" stroke-width="2.98385"/><path d="M318.9563,82.65196c5.44521,8.28343 8.46276,17.87186 8.14648,27.82422c-0.12126,9.27688 -1.69419,17.66896 -11.50781,38.79297c3.50893,-24.13773 4.49239,-33.42571 -0.32422,-49.05078c-4.41053,-14.30775 -14.08423,-26.00759 -25.04297,-37.28711c16.41641,6.65191 23.06199,11.43881 28.72852,19.7207zM168.11059,107.75938c-4.58357,15.27376 -3.39278,22.57454 -3.9375,47.67774c0,-0.00002 -7.332,-22.42063 -7.7793,-34.05665c-0.25298,-6.5812 0.66762,-13.34975 2.9082,-19.54297c6.04479,-16.70847 18.90949,-26.77917 31.61133,-35.75c-9.84508,14.09738 -18.25148,26.50582 -22.80274,41.67188zM354.6145,124.51719c0.83845,15.55319 -8.81008,33.7921 -16.40234,43.75391c4.24996,-15.7042 7.71283,-26.46295 7.48515,-40.03839c-0.2194,-13.08184 -3.76981,-25.98326 -8.50273,-38.31903c9.49644,9.48386 16.72477,21.70861 17.41992,34.60352zM185.01097,139.82188c7.09367,18.41869 20.16509,34.04502 27.56641,42.88086l-9.25,11.25c-9.54106,-11.14644 -16.34564,-20.46232 -20.50001,-28.25c-7.1769,-13.45364 -9.1268,-21.3765 -9.36719,-33.99219c-0.26549,-13.9332 2.29715,-21.16441 5.36719,-29.1875c0.70629,11.87309 1.86928,26.09673 6.18359,37.29883zM314.05591,117.48205c0.98675,5.39896 1.02881,11.05468 0.10546,16.46484c-1.82368,10.68548 -5.77216,21.10367 -10.98242,30.60938c-7.41774,13.5331 -28.32422,36.62304 -28.32422,36.62304c0,0 31.08197,-23.85535 41.50782,-39.99414c9.26055,-14.33496 17.22656,-48.21289 17.22656,-48.21289c1.39735,9.46189 4.38268,32.73941 0.47266,48.38867c-2.33454,9.34364 -8.04945,17.66603 -13.8379,25.36328c-5.3216,7.07645 -18.87109,18.69336 -18.87109,18.69336c0,0 17.13453,-9.70268 24.69336,-15.93359c6.01021,-4.95434 19.6073,-20.85653 24.25195,-27.58984c4.15286,-6.02036 11.00391,-18.98243 11.00391,-18.98243c2.78526,23.32678 0.83375,30.33901 -1.39063,35.55469c-5.61548,13.16703 -21.28294,28.4105 -29.81054,36.07422c-7.86505,7.06827 -19.75099,14.07606 -25.0586,18.97656c-26.61795,24.99571 -23.24912,50.89033 -33.10742,58.34961c-6.1436,4.64855 -22.85547,3.43555 -22.85547,3.43555c0,0 7.37353,-5.58088 8.33203,-9.74609c0.91403,-3.97197 -1.24321,-8.19561 -3.08398,-11.83204c-2.06913,-4.08756 -6.58137,-6.58829 -8.66602,-10.66796c-2.94451,-5.76243 -4.98166,-12.27716 -5.03906,-18.74805c-0.09779,-11.01757 8.01172,-32.06836 8.01172,-32.06836c0,0 -4.28491,7.40648 -6.5,11.06641c-5.65036,9.10888 -11.84941,18.33196 -13.5625,29.15234c-0.91711,7.04013 2.33984,21.16992 2.33984,21.16992c0,0 -6.06333,-6.49768 -7.77929,-10.50195c-3.22574,-7.52738 -4.20899,-24.20508 -4.20899,-24.20508c0,0 -5.64919,14.33948 -5.93945,21.89648c-0.26352,6.86084 0.99033,13.99308 3.85156,20.23438c2.31616,5.05232 10.375,13.05273 10.375,13.05273c0,0 -9.49326,-5.41203 -12.95898,-9.49414c-3.38552,-3.98764 -5.83895,-8.91882 -7.09766,-13.99609c-2.36445,-9.53752 -1.20866,-19.67453 -0.49219,-29.47461c0.76362,-10.44499 2.31858,-20.90382 5.0879,-31.00391c2.82591,-10.3065 6.70652,-20.39702 11.67029,-29.8612c6.96218,-13.27444 15.86112,-16.59473 12.82385,-25.66223c-2.25707,-6.73827 -12.03422,-10.29587 -19.09375,-9.48244c-4.33354,0.49933 -10.08985,8.334 -10.08985,8.334c0,0 -1.85824,-6.49579 -1.87304,-9.83204c-0.01746,-3.93019 0.55517,-7.98915 2.10351,-11.60155c1.50701,-3.51597 3.98366,-6.64393 6.76563,-9.26953c5.44051,-5.1347 18.89897,-12.06942 29.60546,-14.62109c11.63049,-2.77189 20.21183,-2.90585 35.86719,-0.33008c0,0 -13.52435,0.15146 -19.91992,2.06445c-3.76669,1.12666 -10.47266,5.42578 -10.47266,5.42578c0,0 13.73618,-0.36183 20.26758,1.42969c9.62424,2.63986 12.7739,5.35663 15.78906,15.95703c0,0 -9.13096,-6.40011 -14.35156,-8.11914c-4.90396,-1.61477 -15.375,-1.875 -15.375,-1.875c0,0 6.93228,5.75933 9.13867,9.58203c2.77019,4.79952 4.05346,10.4468 4.67774,15.95312c0.81487,7.18743 -1.28906,21.66211 -1.28906,21.66211c0,0 -2.87313,-9.22872 -4.5254,-6.58398c-1.65226,2.64474 -3.5303,15.51677 -5.8125,23.13281c-0.72412,2.41651 -2.49609,7.14453 -2.49609,7.14453c0,0 0.42794,-11.88668 -3.83008,-10.67578c-4.25802,1.2109 -9.03893,9.30408 -12.48242,14.74609c-3.72206,5.88226 -6.81581,12.29638 -8.62695,19.01758c-2.0231,7.50781 -2.3418,23.20898 -2.3418,23.20898c0,0 10.06523,-23.71826 17.6875,-33.95312c6.67144,-8.95812 16.58746,-15.02351 24.03711,-23.3457c6.04255,-6.75029 11.3902,-14.1045 16.66992,-21.4668c4.40131,-6.1374 9.04662,-12.18168 12.49219,-18.90235c2.97063,-5.79428 5.33084,-11.94973 6.94531,-18.25781c1.76033,-6.87798 2.92188,-21.09766 2.92188,-21.09766c0,0 4.48903,9.51027 5.42383,14.625zM150.80003,109.30431c0,0 -2.23271,16.90273 -2.02539,25.39063c0.42384,17.3526 2.9855,23.24551 8.88281,32.50195c11.32179,17.77071 15.83489,19.96539 32.17578,27.86914c5.1413,2.48674 15.95118,6.25391 15.95118,6.25391c0,0 -5.89584,17.16929 -6.79298,26.12109c-0.98171,9.79571 1.61329,29.49024 1.61329,29.49024c0,0 -17.4876,-6.13043 -25.50782,-10.67188c-7.41054,-4.19622 -14.46165,-9.21505 -20.58008,-15.13867c-7.23444,-7.00409 -13.84539,-14.90801 -18.67773,-23.74219c-4.47564,-8.18207 -7.79513,-17.20578 -9.18555,-26.42773c-0.85448,-5.66737 0.60547,-17.1836 0.60547,-17.1836c0,0 6.04467,13.88887 9.3508,20.31641c2.49229,4.84534 5.68995,9.44972 9.64529,13.19726c3.33531,3.16008 11.55078,7.52149 11.55078,7.52149c0,0 -5.71312,-7.85106 -8.25699,-11.98047c-2.63385,-4.27548 -5.27899,-8.58907 -7.23324,-13.21484c-3.11384,-7.37053 -6.11913,-14.99592 -7.0625,-22.94141c-0.98596,-8.30423 -0.99724,-17.07759 1.56169,-25.03901c2.68682,-8.35929 13.98518,-22.32232 13.98518,-22.32232zM229.24341,126.49377c-4.72605,2.71541 -10,9.75 -10,9.75c0,0 8.19825,-1.75644 11.66796,-3.75c3.46971,-1.99356 7.33204,-7.16602 7.33204,-7.16602c0,0 -1.06732,-0.38779 -2.72657,-0.43555c-1.65924,-0.04776 -3.91041,0.24386 -6.27343,1.60156zM118.66331,173.24572c2.90176,19.19504 10.41716,37.35907 16.97461,55.50391c-15.04799,-16.21774 -24.02506,-36.92938 -25.80234,-58.02123c-1.1835,-14.04518 2.51584,-24.60916 10.47421,-40.96706c-1.40548,11.94564 -3.38987,30.55103 -1.64648,43.48438zM352.19067,235.20666c-11.27941,11.51553 -26.25259,17.88137 -40.09375,25.61328c-11.787,7.50231 -21.99145,15.68976 -27.91406,28.80664c0,0 3.28903,-14.83358 7.13672,-21.23242c7.8197,-12.21678 19.52666,-19.93494 32.39062,-26.03321c10.51529,-6.04371 21.60513,-11.47204 28.68555,-21.76562c4.80756,-6.1846 12.58594,-19.84569 12.58594,-19.8457c-0.52085,13.00644 -3.155,25.004 -12.79102,34.45703zM140.92894,245.56212c11.58729,8.43505 24.37109,15.22296 37.35547,21.29101c7.78811,3.63965 24.16993,8.99609 24.16993,8.99609l5.74805,13.70313c-34.42295,-11.42083 -40.73065,-14.16531 -48.73243,-19.64258c-9.60755,-5.98938 -16.45245,-10.51268 -24.46875,-21.28906c-4.42729,-5.95164 -11.54297,-19.02539 -11.54297,-19.02539c0,0 11.09245,11.3237 17.4707,15.9668zM250.1438,252.80041c2.50357,4.06558 8.00488,5.01162 11.96679,16.82422c1.64734,4.91162 2.80078,15.2871 2.80078,15.2871c0,0 4.26591,-9.18678 4.06836,-14.0625c-0.45696,-11.27825 -11.12899,-18.55587 -14.50976,-23.20507c-3.00716,-4.13542 -4.8086,-14.56641 -4.8086,-14.56641c-5.40191,10.74108 -1.50048,16.50259 0.48243,19.72266z" fill="url(#color-2)" stroke="none" stroke-width="0"/></g></g></svg>