<?xml version="1.0" encoding="UTF-8" standalone="no"?>
<!-- Created with Inkscape (http://www.inkscape.org/) -->

<svg
   version="1.1"
   id="svg1"
   width="973.33331"
   height="973.33331"
   viewBox="0 0 973.33331 973.33331"
   sodipodi:docname="SwarmFM.svg"
   inkscape:version="1.4.2 (ebf0e940d0, 2025-05-08)"
   xmlns:inkscape="http://www.inkscape.org/namespaces/inkscape"
   xmlns:sodipodi="http://sodipodi.sourceforge.net/DTD/sodipodi-0.dtd"
   xmlns="http://www.w3.org/2000/svg"
   xmlns:svg="http://www.w3.org/2000/svg">
  <defs
     id="defs1">
    <inkscape:path-effect
       effect="fillet_chamfer"
       id="path-effect27"
       is_visible="true"
       lpeversion="1"
       nodesatellites_param="F,0,0,1,0,49.473586,0,1 @ F,0,0,1,0,49.473586,0,1 @ F,0,0,1,0,141.98329,0,1 @ F,0,0,1,0,49.473586,0,1 @ F,0,0,1,0,49.473586,0,1 @ F,0,1,1,0,141.98329,0,1 @ F,0,0,1,0,49.473586,0,1 @ F,0,0,1,0,49.473586,0,1 @ F,0,1,1,0,141.98329,0,1 @ F,0,0,1,0,49.473586,0,1 @ F,0,0,1,0,49.473586,0,1 @ F,0,1,1,0,141.98329,0,1 @ F,0,0,1,0,49.473586,0,1 @ F,0,0,1,0,49.473586,0,1 @ F,0,1,1,0,141.98329,0,1 @ F,0,0,1,0,49.473586,0,1 @ F,0,0,1,0,49.473586,0,1 @ F,0,1,1,0,141.98329,0,1"
       radius="0"
       unit="px"
       method="auto"
       mode="F"
       chamfer_steps="1"
       flexible="false"
       use_knot_distance="true"
       apply_no_radius="true"
       apply_with_radius="true"
       only_selected="false"
       hide_knots="false" />
    <inkscape:path-effect
       effect="fillet_chamfer"
       id="path-effect12"
       is_visible="true"
       lpeversion="1"
       nodesatellites_param="F,0,0,1,0,0,0,1 @ F,0,0,1,0,0,0,1 @ F,0,0,1,0,11.189569,0,1 @ F,0,0,1,0,10.615848,0,1"
       radius="0"
       unit="px"
       method="auto"
       mode="F"
       chamfer_steps="1"
       flexible="false"
       use_knot_distance="true"
       apply_no_radius="true"
       apply_with_radius="true"
       only_selected="false"
       hide_knots="false" />
    <inkscape:path-effect
       effect="fillet_chamfer"
       id="path-effect9"
       is_visible="true"
       lpeversion="1"
       nodesatellites_param="F,0,0,1,0,49.473586,0,1 @ F,0,0,1,0,49.473586,0,1 @ F,0,0,1,0,141.98329,0,1 @ F,0,0,1,0,49.473586,0,1 @ F,0,0,1,0,49.473586,0,1 @ F,0,1,1,0,141.98329,0,1 @ F,0,0,1,0,49.473586,0,1 @ F,0,0,1,0,49.473586,0,1 @ F,0,1,1,0,141.98329,0,1 @ F,0,0,1,0,49.473586,0,1 @ F,0,0,1,0,49.473586,0,1 @ F,0,1,1,0,141.98329,0,1 @ F,0,0,1,0,49.473586,0,1 @ F,0,0,1,0,49.473586,0,1 @ F,0,1,1,0,141.98329,0,1 @ F,0,0,1,0,49.473586,0,1 @ F,0,0,1,0,49.473586,0,1 @ F,0,1,1,0,141.98329,0,1"
       radius="0"
       unit="px"
       method="auto"
       mode="F"
       chamfer_steps="1"
       flexible="false"
       use_knot_distance="true"
       apply_no_radius="true"
       apply_with_radius="true"
       only_selected="false"
       hide_knots="false" />
    <inkscape:path-effect
       effect="fillet_chamfer"
       id="path-effect7"
       is_visible="true"
       lpeversion="1"
       nodesatellites_param="F,0,0,1,0,0,0,1 @ F,0,0,1,0,0,0,1 @ F,0,0,1,0,0,0,1 @ F,0,0,1,0,0,0,1 @ F,0,0,1,0,0,0,1 @ F,0,0,1,0,0,0,1 @ F,0,0,1,0,0,0,1 @ F,0,0,1,0,0,0,1 @ F,0,0,1,0,0,0,1 @ F,0,0,1,0,0,0,1 @ F,0,0,1,0,0,0,1 @ F,0,0,1,0,0,0,1"
       radius="0"
       unit="px"
       method="auto"
       mode="F"
       chamfer_steps="1"
       flexible="false"
       use_knot_distance="true"
       apply_no_radius="true"
       apply_with_radius="true"
       only_selected="false"
       hide_knots="false" />
    <inkscape:path-effect
       effect="fillet_chamfer"
       id="path-effect6"
       is_visible="true"
       lpeversion="1"
       nodesatellites_param="F,0,0,1,0,0,0,1 @ F,0,0,1,0,0,0,1 @ F,0,0,1,0,0,0,1 @ F,0,0,1,0,0,0,1 @ F,0,0,1,0,0,0,1 @ F,0,0,1,0,0,0,1 @ F,0,0,1,0,0,0,1 @ F,0,0,1,0,0,0,1 @ F,0,0,1,0,0,0,1 @ F,0,0,1,0,0,0,1 @ F,0,0,1,0,0,0,1 @ F,0,0,1,0,0,0,1"
       radius="0"
       unit="px"
       method="auto"
       mode="F"
       chamfer_steps="1"
       flexible="false"
       use_knot_distance="true"
       apply_no_radius="true"
       apply_with_radius="true"
       only_selected="false"
       hide_knots="false" />
    <inkscape:path-effect
       effect="fillet_chamfer"
       id="path-effect12-0"
       is_visible="true"
       lpeversion="1"
       nodesatellites_param="F,0,0,1,0,0,0,1 @ F,0,0,1,0,0,0,1 @ F,0,0,1,0,11.189569,0,1 @ F,0,0,1,0,10.615848,0,1"
       radius="0"
       unit="px"
       method="auto"
       mode="F"
       chamfer_steps="1"
       flexible="false"
       use_knot_distance="true"
       apply_no_radius="true"
       apply_with_radius="true"
       only_selected="false"
       hide_knots="false" />
  </defs>
  <sodipodi:namedview
     id="namedview1"
     pagecolor="#ffffff"
     bordercolor="#000000"
     borderopacity="0.25"
     inkscape:showpageshadow="2"
     inkscape:pageopacity="0.0"
     inkscape:pagecheckerboard="0"
     inkscape:deskcolor="#d1d1d1"
     inkscape:zoom="0.6853589"
     inkscape:cx="516.5177"
     inkscape:cy="465.44956"
     inkscape:window-width="1920"
     inkscape:window-height="1011"
     inkscape:window-x="0"
     inkscape:window-y="0"
     inkscape:window-maximized="1"
     inkscape:current-layer="layer2" />
  <g
     inkscape:groupmode="layer"
     id="layer2"
     inkscape:label="Layer 1"
     style="opacity:1">
    <path
       id="path26"
       style="opacity:1;display:inline;stroke-width:0.988525"
       d="m 805.80514,747.27198 -75.93881,80.06675 a 48.281132,48.281132 0 0 1 -68.70354,1.37603 l -16.95737,-16.50235 a 78.645122,78.645122 0 0 0 -131.55581,39.00784 l -5.22116,23.07853 a 48.281132,48.281132 0 0 1 -58.3492,36.29659 L 341.77003,884.86381 a 48.28113,48.28113 0 0 1 -35.54346,-58.811 l 5.81277,-22.93669 a 78.645123,78.645123 0 0 0 -99.55968,-94.42676 l -22.59718,7.01761 A 48.28113,48.28113 0 0 1 129.27411,683.32338 L 97.903689,577.52509 a 48.281134,48.281134 0 0 1 33.160091,-60.18704 l 22.77013,-6.43434 A 78.645126,78.645126 0 0 0 185.83004,377.46912 L 168.45403,361.4082 a 48.281132,48.281132 0 0 1 -2.25917,-68.68018 l 75.9388,-80.06675 a 48.28113,48.28113 0 0 1 68.70354,-1.37603 l 16.95737,16.50235 a 78.645127,78.645127 0 0 0 131.55581,-39.00783 l 5.22117,-23.07854 a 48.281132,48.281132 0 0 1 58.3492,-36.29659 l 107.30922,25.73157 a 48.28113,48.28113 0 0 1 35.54346,58.811 l -5.81278,22.93668 a 78.645118,78.645118 0 0 0 99.55969,94.42676 l 22.59717,-7.01762 a 48.281133,48.281133 0 0 1 60.60837,32.3836 l 31.37043,105.79829 a 48.281131,48.281131 0 0 1 -33.16008,60.18704 l -22.77014,6.43433 a 78.645126,78.645126 0 0 0 -31.99613,133.4346 l 17.37601,16.06092 a 48.281131,48.281131 0 0 1 2.25917,68.68018 z M 550.51953,375.3418 c -10.86039,0 -21.25095,2.17071 -31.09375,5.73047 0.64994,-0.2351 1.24921,-0.58883 1.9043,-0.81055 -1.91035,0.48212 -3.81662,1.02083 -5.7168,1.61719 -18.36152,5.76263 -33.41739,19.84943 -45.83789,32.93554 -15.72603,-8.73053 -34.23539,-17.58789 -53.39844,-17.58789 -3.28597,5e-5 -6.46926,0.43608 -9.68554,0.73828 2.39649,-0.22525 4.73952,-0.65048 7.17578,-0.70898 -2.72855,-0.155 -5.46469,-0.19894 -8.20508,-0.12698 -8.22117,0.21597 -16.47027,1.48883 -24.58984,4.03711 -30.42164,9.54761 -50.87358,32.36558 -60.78125,58.92382 1.91828,-4.51036 4.1857,-8.86176 6.75195,-13.03515 -2.56575,4.1727 -4.83398,8.52555 -6.75195,13.03515 -6.56295,15.43103 -9.14574,32.65045 -6.4668,50.4043 0.21411,1.41894 0.47555,2.84053 0.7832,4.26367 0.50744,2.34731 1.15224,4.69979 1.90235,7.05469 -0.75014,-2.35498 -1.39489,-4.70729 -1.90235,-7.05469 1.09844,7.08152 2.92921,13.99261 5.50196,20.56836 9.82499,25.11193 43.27785,55.85335 79.53515,82.29883 -4.0653,-3.01246 -7.83016,-6.39508 -11.80859,-9.55273 24.85975,19.72558 50.71928,35.74543 73.28125,47.94531 -8.1652,-4.40135 -15.40164,-7.78587 -24.45116,-13.36914 11.44669,7.16683 20.95891,11.9722 30.85155,17.24414 1.98743,1.03662 4.1369,2.42296 6.0332,3.37304 16.97007,8.68439 31.02056,14.73336 35.90039,13.91797 -0.65397,-0.0254 -1.44078,-0.13663 -2.30078,-0.29297 0.85825,0.15587 1.64792,0.26764 2.30078,0.29297 0.39749,0.0158 0.75651,0.007 1.07422,-0.0273 19.08029,-2.05139 134.05942,-130.08803 138.33203,-192.06445 0.49199,-7.1366 0.15322,-14.37407 -0.95312,-21.55078 -0.13261,-1.44979 -0.30676,-2.88301 -0.52735,-4.30079 -2.92833,-18.8218 -11.32875,-35.29612 -23.28906,-48.45312 -0.004,-0.004 -0.008,-0.007 -0.0117,-0.0117 -17.3918,-20.98332 -42.91535,-35.43359 -73.55664,-35.43359 z m -42.09961,10.41601 c -0.64715,0.3208 -1.32603,0.57502 -1.9668,0.90821 0.64196,-0.33382 1.31843,-0.58683 1.9668,-0.90821 z m -14.00976,8.16016 c -1.03443,0.70281 -2.02268,1.46348 -3.03516,2.19531 1.01534,-0.73396 1.99774,-1.49054 3.03516,-2.19531 z M 399.5,398.67578 c -2.75645,0.45306 -5.40797,1.20431 -8.0918,1.86914 2.68604,-0.66549 5.33302,-1.41579 8.0918,-1.86914 z m -14.92383,3.58399 c -2.65638,0.85081 -5.17621,1.98456 -7.73828,3.03515 2.56414,-1.05157 5.07968,-2.1837 7.73828,-3.03515 z m 98.35156,0.47461 c -1.01742,0.86593 -2.04584,1.72006 -3.03515,2.61132 0.99282,-0.89452 2.01402,-1.74232 3.03515,-2.61132 z m -112.38671,5.14648 c -2.52433,1.22999 -4.87694,2.72863 -7.28321,4.14648 2.40786,-1.41894 4.75713,-2.91566 7.28321,-4.14648 z m -12.97071,7.48242 c -2.36554,1.59884 -4.52019,3.44873 -6.74023,5.22461 2.22092,-1.77671 4.37369,-3.62509 6.74023,-5.22461 z m -11.69726,9.14453 c -2.21038,1.99533 -4.16903,4.22496 -6.19532,6.39258 2.0272,-2.16871 3.98386,-4.39631 6.19532,-6.39258 z m -10.24414,10.63086 c -2.12423,2.54554 -3.9453,5.30709 -5.8086,8.03906 1.86345,-2.73224 3.68418,-5.49327 5.8086,-8.03906 z m -18.25782,89.05469 c 0.52725,1.4995 1.0591,2.99967 1.67774,4.5 -0.61883,-1.50073 -1.15035,-3.0001 -1.67774,-4.5 z m 4.13086,9.4668 c 1.49573,3.1366 2.9864,6.27452 4.83789,9.40039 -1.8522,-3.12692 -3.34168,-6.26273 -4.83789,-9.40039 z m 8.53907,15.03906 c 1.85237,2.8141 3.69019,5.62898 5.78906,8.41992 -2.1002,-2.79262 -3.93566,-5.60411 -5.78906,-8.41992 z m 10.49609,14.27734 c 1.91617,2.35106 3.85814,4.69693 5.92187,7.02149 -2.06852,-2.32965 -4.00157,-4.66522 -5.92187,-7.02149 z m 17.80859,18.90821 c 5.30491,5.26087 10.54704,10.54054 16.35938,15.56445 -5.83779,-5.04417 -11.03316,-10.28129 -16.35938,-15.56445 z m 120.24414,83.68554 c 4.30942,2.06522 8.46939,4.01972 12.0918,5.53321 -3.70925,-1.54805 -7.66142,-3.40556 -12.0918,-5.53321 z m 18.94532,8.39649 c 1.57178,0.57419 3.08132,1.10734 4.42578,1.52343 -1.35309,-0.41862 -2.8424,-0.94465 -4.42578,-1.52343 z m 7.03906,2.32812 c 0.57599,0.15033 1.13417,0.28937 1.65039,0.40039 -0.51694,-0.11122 -1.07356,-0.24978 -1.65039,-0.40039 z" />
    <path
       id="path2"
       style="display:inline;opacity:1;stroke-width:1.42258"
       d="m 383.96772,66.857096 c -62.41811,16.69987 -121.09754,47.974254 -145.03755,63.642674 -22.55597,-19.91343 -52.11914,-13.51139 -58.39076,-11.84888 -10.77492,2.78836 -20.75085,8.15798 -29.55127,14.909 -7.48195,5.71621 -14.31442,12.3405 -19.9819,19.87231 -7.00085,9.34722 -11.99558,20.301 -13.76391,31.8835 -2.00241,12.54817 -0.30011,25.47999 3.76516,37.45354 3.58141,10.50751 8.88017,20.4076 15.47942,29.32677 0.33245,0.8568 0.90494,-0.28475 1.36831,-0.51795 39.95292,-34.52829 79.90512,-69.05741 119.85776,-103.58601 2.3148,2.01348 4.6296,4.02694 6.9444,6.04042 -41.36514,35.03244 -82.72952,70.06576 -124.09512,105.09765 3.56594,4.14061 6.99744,8.40104 10.65745,12.45748 3.74902,3.5705 10.19126,3.81916 14.11275,0.38879 4.80269,-3.98007 9.52371,-8.0587 14.29847,-12.07379 31.951,-27.06034 63.90965,-54.11297 95.8432,-81.19309 4.05116,-3.68258 4.7606,-10.46553 1.42618,-14.84192 -1.23061,-1.71396 -2.72316,-3.21624 -4.03575,-4.86521 39.32578,-22.67898 71.83793,-35.41959 107.22479,-45.68076 48.38315,-14.011795 138.21394,-31.189595 231.52404,-3.52285 56.46335,16.9674 123.2712,51.64269 188.40268,120.45427 27.21623,28.84972 50.9464,61.288 69.11805,96.64607 40.22382,78.09501 49.55079,162.96332 36.38946,245.35454 -6.67626,42.03647 -18.23982,76.25599 -24.26385,92.64137 -7.02017,19.12447 -15.11042,37.87928 -24.65341,55.88611 -0.78412,1.46616 -1.58172,2.92523 -2.38907,4.37873 -2.08501,-1.73067 -4.06158,-3.61328 -6.29729,-5.14848 -4.46277,-2.72758 -10.81781,-1.81187 -14.20534,2.22005 -2.25747,2.53802 -4.39319,5.18242 -6.61813,7.75005 -28.8473,33.98212 -57.71025,67.95197 -86.5346,101.95294 -3.24802,4.15769 -2.72465,10.76305 1.27142,14.25616 2.23022,2.03593 4.60651,3.90592 6.87982,5.89408 1.64257,1.39429 3.2843,2.78956 4.92834,4.18211 35.029,-41.25322 70.05425,-82.50961 105.0818,-123.76406 2.44353,2.32235 4.93663,4.59643 7.3052,6.99594 -35.23666,40.77105 -70.47398,81.54153 -105.71022,122.31293 5.14828,3.76128 10.53039,7.21773 16.23711,10.07358 12.25954,6.16993 25.80292,10.19922 39.59875,10.29882 10.79675,0.10382 21.60557,-2.36764 31.26013,-7.2095 12.33413,-6.10201 22.66975,-15.64864 31.11431,-26.40755 7.40284,-9.42085 13.24062,-20.23336 16.00756,-31.945 1.29699,-5.33813 6.3716,-38.18964 -11.34237,-58.29873 8.06243,-14.03585 15.28221,-28.54385 22.09622,-43.2258 3.14478,-2.62995 37.23394,-95.04316 44.53841,-139.88978 9.88648,-60.68195 14.07691,-137.89924 -17.30605,-219.34627 C 906.36299,287.78365 863.91413,227.62933 819.42525,183.36539 788.88837,152.89997 726.14175,101.53202 636.31838,70.231624 610.15777,60.261872 514.47616,31.762579 383.96772,66.857096 Z"
       sodipodi:nodetypes="cccccccccccccccccccccccccccccccccccccccccccccccc" />
  </g>
  <g
     inkscape:groupmode="layer"
     inkscape:label="Image"
     id="g1" />
</svg>
